<svg xmlns="http://www.w3.org/2000/svg" xmlns:xlink="http://www.w3.org/1999/xlink" xmlns:fi="http://pattern.flaticon.com/" x="0" y="0" width="800" height="800" viewBox="0 0 1120 1120"><rect x="0px" y="0px" width="100%" height="100%" opacity="1" fill="#dfffe7"/><defs><path d="m482 201h-181.732c17.597-18.112 34.732-44.991 34.732-81 0-35.445 8.214-46.562 15.371-52.287 10.99-8.792 31.231-12.713 65.629-12.713 8.284 0 15-6.716 15-15s-6.716-15-15-15c-42.803 0-67.247 5.588-84.371 19.287-23.602 18.882-26.629 50.381-26.629 75.713 0 46.583-41.523 74.289-52.895 81h-222.105c-16.542 0-30 13.458-30 30v226c0 16.542 13.458 30 30 30h452c16.542 0 30-13.458 30-30v-226c0-16.542-13.458-30-30-30zm-162 64h16c8.284 0 15 6.716 15 15s-6.716 15-15 15h-16c-8.284 0-15-6.716-15-15s6.716-15 15-15zm-40 64h16c8.284 0 15 6.716 15 15s-6.716 15-15 15h-16c-8.284 0-15-6.716-15-15s6.716-15 15-15zm-40-64h16c8.284 0 15 6.716 15 15s-6.716 15-15 15h-16c-8.284 0-15-6.716-15-15s6.716-15 15-15zm-24 64c8.284 0 15 6.716 15 15s-6.716 15-15 15h-16c-8.284 0-15-6.716-15-15s6.716-15 15-15zm-56-64h16c8.284 0 15 6.716 15 15s-6.716 15-15 15h-16c-8.284 0-15-6.716-15-15s6.716-15 15-15zm-80 0h16c8.284 0 15 6.716 15 15s-6.716 15-15 15h-16c-8.284 0-15-6.716-15-15s6.716-15 15-15zm16 158h-16c-8.284 0-15-6.716-15-15s6.716-15 15-15h16c8.284 0 15 6.716 15 15s-6.716 15-15 15zm24-64c-8.284 0-15-6.716-15-15s6.716-15 15-15h16c8.284 0 15 6.716 15 15s-6.716 15-15 15zm232 64h-192c-8.284 0-15-6.716-15-15s6.716-15 15-15h192c8.284 0 15 6.716 15 15s-6.716 15-15 15zm24-64h-16c-8.284 0-15-6.716-15-15s6.716-15 15-15h16c8.284 0 15 6.716 15 15s-6.716 15-15 15zm9-79c0-8.284 6.716-15 15-15h16c8.284 0 15 6.716 15 15s-6.716 15-15 15h-16c-8.284 0-15-6.716-15-15zm47 143h-16c-8.284 0-15-6.716-15-15s6.716-15 15-15h16c8.284 0 15 6.716 15 15s-6.716 15-15 15z" transform="matrix(0.13074090431156982 -0.07802279530331348 0.07802279530331348 0.13074090431156982 88.55649289858988 54.504164093886374)" id="L1_6" fill="#b5f5ff"/><g transform="matrix(0.1353446547706242 -0.0856262158400279 0.0856262158400279 0.1353446547706242 214.43145712367306 222.27207963376733)" id="L1_7"><path d="m431.832031 241v-33.074219c0-28.621093-23.285156-51.90625-51.90625-51.90625h-149.429687c-14.058594 0-25.496094-11.4375-25.496094-25.496093 0-14.058594 11.4375-25.5 25.496094-25.5h214.03125c31.734375 0 57.550781-25.816407 57.550781-57.550782v-47.472656h-30v47.472656c0 15.191406-12.359375 27.550782-27.550781 27.550782h-214.03125c-30.601563 0-55.496094 24.898437-55.496094 55.5 0 30.601562 24.894531 55.496093 55.496094 55.496093h149.429687c12.082031 0 21.90625 9.828125 21.90625 21.90625v33.074219h-401.832031v271h512v-271zm50.167969 241h-452v-211h452zm0 0" fill="#bbf0cd"/><path d="m64.832031 306.042969h30.332031v30.332031h-30.332031zm0 0" fill="#bbf0cd"/><path d="m123.5 306.042969h30.332031v30.332031h-30.332031zm0 0" fill="#bbf0cd"/><path d="m182.167969 306.042969h30.332031v30.332031h-30.332031zm0 0" fill="#bbf0cd"/><path d="m240.832031 306.042969h30.332031v30.332031h-30.332031zm0 0" fill="#bbf0cd"/><path d="m299.5 306.042969h30.332031v30.332031h-30.332031zm0 0" fill="#bbf0cd"/><path d="m358.167969 306.042969h30.332031v30.332031h-30.332031zm0 0" fill="#bbf0cd"/><path d="m416.832031 306.042969h30.332031v30.332031h-30.332031zm0 0" fill="#bbf0cd"/><path d="m64.832031 361.332031h30.332031v30.332031h-30.332031zm0 0" fill="#bbf0cd"/><path d="m123.5 361.332031h30.332031v30.332031h-30.332031zm0 0" fill="#bbf0cd"/><path d="m182.167969 361.332031h30.332031v30.332031h-30.332031zm0 0" fill="#bbf0cd"/><path d="m240.832031 361.332031h30.332031v30.332031h-30.332031zm0 0" fill="#bbf0cd"/><path d="m299.5 361.332031h30.332031v30.332031h-30.332031zm0 0" fill="#bbf0cd"/><path d="m358.167969 361.332031h30.332031v30.332031h-30.332031zm0 0" fill="#bbf0cd"/><path d="m416.832031 361.332031h30.332031v30.332031h-30.332031zm0 0" fill="#bbf0cd"/><path d="m64.832031 416.625h30.332031v30.332031h-30.332031zm0 0" fill="#bbf0cd"/><path d="m416.832031 416.625h30.332031v30.332031h-30.332031zm0 0" fill="#bbf0cd"/><path d="m123.5 416.789062h265v30h-265zm0 0" fill="#bbf0cd"/></g><path d="M448,48H32C14.368,48,0,62.368,0,80v320c0,17.664,14.368,32,32,32h416c17.664,0,32-14.336,32-32V80  C480,62.368,465.664,48,448,48z M144,272c8.832,0,16-7.168,16-16V80h32v176c0,8.832,7.168,16,16,16h16v128h-96V272H144z M256,272h16  c8.832,0,16-7.168,16-16V80h32v176c0,8.832,7.168,16,16,16h16v128h-96V272z M32,80h32v176c0,8.832,7.168,16,16,16h16v128H32V80z   M448,416v-16h-64V272h16c8.832,0,16-7.168,16-16V80h32v320h0.032L448,416z" transform="matrix(0.1099988392293415 -0.0693470903149077 0.0693470903149077 0.1099988392293415 84.95697690938019 210.24358026053588)" id="L1_8" fill="#e1f0b1"/><path d="m496.792969 0h-481.585938c-8.398437 0-15.207031 6.808594-15.207031 15.207031v409.75c0 8.394531 6.808594 15.203125 15.207031 15.203125h481.585938c8.398437 0 15.207031-6.808594 15.207031-15.203125v-409.75c0-8.398437-6.808594-15.207031-15.207031-15.207031zm-102.128907 30.410156v171.511719h-36.535156v-171.511719zm-225.585937 201.925782c8.398437 0 15.207031-6.808594 15.207031-15.207032v-186.71875h23.035156v186.71875c0 8.398438 6.808594 15.207032 15.207032 15.207032h18.265625v177.414062h-89.984375v-177.414062zm102.128906 0h18.265625c8.398438 0 15.207032-6.808594 15.207032-15.207032v-186.71875h23.035156v186.71875c0 8.398438 6.808594 15.207032 15.207031 15.207032h18.269531v177.414062h-89.988281v-177.414062zm3.0625-201.925782v171.511719h-36.539062v-171.511719zm-120.398437 0v171.511719h-36.535156v-171.511719zm-123.460938 0h56.511719v186.71875c0 8.398438 6.808594 15.207032 15.207031 15.207032h18.269532v177.414062h-89.988282zm451.179688 379.339844h-89.988282v-177.414062h18.269532c8.398437 0 15.207031-6.808594 15.207031-15.207032v-186.71875h56.511719zm0 0" transform="matrix(0.10367413291783231 -0.06812871584949823 0.06812871584949823 0.10367413291783231 -17.534351142194623 -2.585025901609331)" id="L1_10" fill="#c5ccc2"/></defs><g fi:class="KUsePattern"><pattern id="pattern_L1_6" width="350" height="350" patternUnits="userSpaceOnUse"><use xlink:href="#L1_6" x="-350" y="-350"/><use xlink:href="#L1_6" x="0" y="-350"/><use xlink:href="#L1_6" x="350" y="-350"/><use xlink:href="#L1_6" x="-350" y="0"/><use xlink:href="#L1_6" x="0" y="0"/><use xlink:href="#L1_6" x="350" y="0"/><use xlink:href="#L1_6" x="-350" y="350"/><use xlink:href="#L1_6" x="0" y="350"/><use xlink:href="#L1_6" x="350" y="350"/></pattern><rect x="0" y="0" width="100%" height="100%" fill="url(#pattern_L1_6)"/></g><g fi:class="KUsePattern"><pattern id="pattern_L1_7" width="350" height="350" patternUnits="userSpaceOnUse"><use xlink:href="#L1_7" x="-350" y="-350"/><use xlink:href="#L1_7" x="0" y="-350"/><use xlink:href="#L1_7" x="350" y="-350"/><use xlink:href="#L1_7" x="-350" y="0"/><use xlink:href="#L1_7" x="0" y="0"/><use xlink:href="#L1_7" x="350" y="0"/><use xlink:href="#L1_7" x="-350" y="350"/><use xlink:href="#L1_7" x="0" y="350"/><use xlink:href="#L1_7" x="350" y="350"/></pattern><rect x="0" y="0" width="100%" height="100%" fill="url(#pattern_L1_7)"/></g><g fi:class="KUsePattern"><pattern id="pattern_L1_8" width="350" height="350" patternUnits="userSpaceOnUse"><use xlink:href="#L1_8" x="-350" y="-350"/><use xlink:href="#L1_8" x="0" y="-350"/><use xlink:href="#L1_8" x="350" y="-350"/><use xlink:href="#L1_8" x="-350" y="0"/><use xlink:href="#L1_8" x="0" y="0"/><use xlink:href="#L1_8" x="350" y="0"/><use xlink:href="#L1_8" x="-350" y="350"/><use xlink:href="#L1_8" x="0" y="350"/><use xlink:href="#L1_8" x="350" y="350"/></pattern><rect x="0" y="0" width="100%" height="100%" fill="url(#pattern_L1_8)"/></g><g fi:class="KUsePattern"><pattern id="pattern_L1_10" width="350" height="350" patternUnits="userSpaceOnUse"><use xlink:href="#L1_10" x="-350" y="-350"/><use xlink:href="#L1_10" x="0" y="-350"/><use xlink:href="#L1_10" x="350" y="-350"/><use xlink:href="#L1_10" x="-350" y="0"/><use xlink:href="#L1_10" x="0" y="0"/><use xlink:href="#L1_10" x="350" y="0"/><use xlink:href="#L1_10" x="-350" y="350"/><use xlink:href="#L1_10" x="0" y="350"/><use xlink:href="#L1_10" x="350" y="350"/></pattern><rect x="0" y="0" width="100%" height="100%" fill="url(#pattern_L1_10)"/></g></svg>